<svg width="52" height="50" viewBox="0 0 52 50" fill="none" xmlns="http://www.w3.org/2000/svg">
<path d="M0.4785 28.9644C1.36964 33.5473 8.32639 36.9741 11.1581 36.165L11.1581 0.242676C7.59822 0.242676 2.1775 2.83167 0.640297 7.68604C-1.10187 13.1877 1.1527 16.7206 2.17751 18.2038C0.963947 20.3883 -0.654198 23.1391 0.4785 28.9644Z" fill="#346400"/>
<path d="M39.718 27.0227V50.0001C43.6055 50.0001 51.0449 47.2021 51.0449 38.9777C51.0449 30.0242 43.6055 27.2205 39.718 27.0227Z" fill="#FE0002"/>
<rect x="15.446" y="40.7767" width="19.9029" height="9.2233" fill="#FE0002"/>
<rect x="15.446" y="13.754" width="35.5987" height="9.06149" fill="#FE0002"/>
<rect x="15.446" y="27.0227" width="19.9029" height="9.2233" fill="#346400"/>
<rect x="15.446" width="19.9029" height="9.2233" fill="#346400"/>
</svg>
